<svg width="56" height="50" viewBox="0 0 56 50" fill="none" xmlns="http://www.w3.org/2000/svg">
<path d="M3.303 28.512L3.492 28.206L15.201 9.891C15.372 9.63 15.777 9.657 15.903 9.945C17.856 14.328 19.548 19.782 18.756 23.175C18.423 24.57 17.496 26.46 16.452 28.206C16.317 28.458 16.173 28.71 16.011 28.953C15.939 29.061 15.813 29.124 15.678 29.124H3.645C3.321 29.124 3.132 28.773 3.303 28.512ZM55.476 34.812C55.476 34.983 55.377 35.127 55.233 35.19C54.324 35.577 51.219 37.008 49.932 38.799C46.638 43.38 44.127 49.932 38.502 49.932H15.048C6.732 49.932 0 43.173 0 34.83V34.56C0 34.344 0.179999 34.164 0.404999 34.164H13.473C13.734 34.164 13.923 34.398 13.905 34.659C13.806 35.505 13.968 36.378 14.373 37.17C15.147 38.745 16.758 39.726 18.495 39.726H24.966V34.677H18.567C18.243 34.677 18.045 34.299 18.234 34.029C18.306 33.921 18.378 33.813 18.468 33.687C19.071 32.823 19.935 31.491 20.799 29.97C21.384 28.944 21.951 27.846 22.41 26.748C22.5 26.55 22.572 26.343 22.653 26.145C22.779 25.794 22.905 25.461 22.995 25.137C23.085 24.858 23.166 24.57 23.238 24.3C23.454 23.364 23.544 22.374 23.544 21.348C23.544 20.943 23.526 20.52 23.49 20.124C23.472 19.683 23.418 19.242 23.364 18.801C23.328 18.414 23.256 18.027 23.184 17.631C23.085 17.046 22.959 16.461 22.815 15.876L22.761 15.651C22.653 15.246 22.554 14.868 22.428 14.463C22.059 13.203 21.645 11.97 21.195 10.818C21.033 10.359 20.853 9.918 20.664 9.486C20.394 8.82 20.115 8.217 19.863 7.65C19.728 7.389 19.62 7.155 19.512 6.912C19.386 6.642 19.26 6.372 19.125 6.111C19.035 5.913 18.927 5.724 18.855 5.544L18.063 4.086C17.955 3.888 18.135 3.645 18.351 3.708C20.4703 4.28006 22.5885 4.85396 24.705 5.436L24.966 5.508V2.574C24.966 1.152 26.1 0 27.513 0C28.215 0 28.854 0.288001 29.304 0.756001C29.763 1.224 30.051 1.863 30.051 2.574V6.939C30.5479 7.07375 30.8387 7.24515 31.248 7.56C31.437 7.704 31.635 7.884 31.869 8.073C32.346 8.46 32.922 8.955 33.543 9.522C33.705 9.666 33.867 9.81 34.02 9.963C34.821 10.71 35.721 11.583 36.585 12.555C36.828 12.834 37.062 13.104 37.305 13.401C37.539 13.698 37.8 13.986 38.016 14.274C38.313 14.661 38.619 15.066 38.898 15.489C39.024 15.687 39.177 15.894 39.294 16.092C39.654 16.623 39.96 17.172 40.257 17.721C40.383 17.973 40.509 18.252 40.617 18.522C40.95 19.26 41.211 20.007 41.373 20.763C41.427 20.925 41.463 21.096 41.481 21.258V21.294C41.535 21.51 41.553 21.744 41.571 21.987C41.643 22.752 41.607 23.526 41.445 24.3C41.373 24.624 41.283 24.93 41.175 25.263C41.058 25.578 40.95 25.902 40.806 26.217C40.527 26.856 40.203 27.504 39.816 28.098C39.69 28.323 39.537 28.557 39.393 28.782C39.231 29.016 39.06 29.241 38.916 29.457C38.709 29.736 38.493 30.024 38.268 30.285C38.07 30.555 37.872 30.825 37.647 31.068C37.341 31.437 37.044 31.779 36.729 32.112C36.549 32.328 36.351 32.553 36.144 32.751C35.946 32.976 35.739 33.174 35.559 33.354C35.244 33.669 34.992 33.903 34.776 34.11L34.263 34.569C34.191 34.641 34.092 34.677 33.993 34.677H30.051V39.726H35.01C36.117 39.726 37.17 39.339 38.025 38.61C38.313 38.358 39.582 37.26 41.085 35.604C41.139 35.541 41.202 35.505 41.274 35.487L54.963 31.527C55.224 31.455 55.476 31.644 55.476 31.914V34.812Z" fill="white"/>
</svg>
